<svg xmlns="http://www.w3.org/2000/svg" width="40" height="48" fill-rule="evenodd"><circle fill-opacity="0" fill="#d8d8d8" cx="20" cy="24" r="26"/><path d="M12.303 28.422c.65-.98.97-2.045.947-3.094V4.448c.924 1.017 2.077 2.077 3.273 2.656 2.13 1.032 2.25 2.63 2.184 4.317l-.01.253a1.11 1.11 0 0 0 1.072 1.135h.032c.595 0 1.086-.474 1.103-1.073l.008-.23c.053-1.4.178-4.643-3.428-6.4-1.8-.867-3.794-3.52-4.416-4.47l-.046-.063L13 .552l-.033-.037A1.17 1.17 0 0 0 12.7.297L12.67.28l-.025-.012a1.1 1.1 0 0 0-.333-.107l-.05-.008-.04-.003-.07-.004-.037.001-.074.004-.04.007-.065.01-.048.01-.056.015-.054.018-.047.017-.06.027-.038.018-.064.037-.026.015-.063.046-.032.024-.038.034a1.09 1.09 0 0 0-.22.271l-.014.024-.012.025a1.09 1.09 0 0 0-.106.331l-.008.052-.003.04-.004.073v20.142c-.995-.668-2.26-1.047-3.657-1.047a7.85 7.85 0 0 0-2.39.378c-3.496 1.117-5.58 4.4-4.65 7.316.707 2.213 2.92 3.643 5.64 3.643a7.85 7.85 0 0 0 2.39-.378c1.65-.527 3.045-1.55 3.926-2.877zm-1.84-1.22c-.605.9-1.584 1.62-2.758 1.995a5.64 5.64 0 0 1-1.717.273c-1.74 0-3.128-.827-3.537-2.106-.562-1.757.882-3.794 3.217-4.54a5.64 5.64 0 0 1 1.717-.273c1.74 0 3.13.827 3.537 2.106.258.807.095 1.7-.46 2.545zm29.277 7.292l-.016-23.9-.007-.044-.01-.042-.018-.066-.04-.104c-.005-.013-.01-.02-.013-.028l-.035-.07-.024-.04-.032-.05-.035-.047-.03-.037-.043-.047-.03-.03-.047-.043-.034-.03-.047-.035-.042-.03-.044-.027-.05-.028-.04-.02-.058-.025-.04-.015-.06-.02-.047-.012-.055-.013-.06-.01-.043-.006-.08-.004h-.023l-.093.005-.024.002-.072.01-.04.006-.047.012-.062.017-.028.01-.077.03-15.892 7.035-.05.032-.047.035-.036.03-.048.043-.03.03-.043.047-.03.034-.035.047-.03.042-.026.043-.03.05-.02.04-.026.06-.014.04-.02.062-.01.045-.013.058-.01.058-.006.047-.005.103V37.68c-.993-.663-2.252-1.038-3.645-1.038a7.85 7.85 0 0 0-2.39.378c-1.65.528-3.045 1.55-3.926 2.878-.932 1.405-1.2 2.98-.723 4.44.707 2.213 2.92 3.643 5.64 3.643a7.85 7.85 0 0 0 2.39-.378c1.65-.528 3.045-1.55 3.926-2.877.704-1.06 1.022-2.22.935-3.35v-18.75l13.546-5.987v14.162c-.993-.663-2.252-1.038-3.645-1.038a7.85 7.85 0 0 0-2.39.378c-3.496 1.117-5.58 4.4-4.65 7.316.707 2.213 2.92 3.643 5.64 3.643a7.85 7.85 0 0 0 2.39-.378c1.65-.528 3.045-1.55 3.926-2.878.704-1.06 1.022-2.22.935-3.35zM18.453 45.496a5.64 5.64 0 0 1-1.717.273c-1.74 0-3.128-.827-3.537-2.106-.258-.807-.095-1.7.46-2.545.605-.9 1.584-1.62 2.758-1.995a5.64 5.64 0 0 1 1.717-.273c1.74 0 3.128.827 3.537 2.106a2.51 2.51 0 0 1 .107.538v.417c0 .012.001.024.002.036-.042.52-.233 1.05-.568 1.554-.605.9-1.584 1.62-2.758 1.995zm5.533-25.284v-1.75l13.546-5.987v1.75l-13.546 5.987zm10.22 18.407a5.64 5.64 0 0 1-1.717.273c-1.74 0-3.128-.827-3.537-2.106-.562-1.757.882-3.794 3.217-4.54a5.64 5.64 0 0 1 1.717-.273c1.74 0 3.13.827 3.537 2.106a2.51 2.51 0 0 1 .107.538v.227c0 .043.003.086.008.128-.025.55-.22 1.115-.575 1.652-.605.9-1.584 1.62-2.758 1.995z" fill="#333" fill-rule="nonzero"/></svg>